<svg width="633" height="200" viewBox="0 0 633 200" fill="none" xmlns="http://www.w3.org/2000/svg">
<path fill-rule="evenodd" clip-rule="evenodd" d="M148.275 3.15451C155.281 6.36251 162.28 13.3895 165.668 20.6165L168.338 26.3125V173.313L165.668 179.009C162.253 186.295 155.283 193.253 148.034 196.614C143.284 198.817 140.926 199.255 133.838 199.251C125.631 199.248 123.569 198.688 73.9641 182.987C45.7081 174.044 20.8271 165.828 18.6721 164.729C13.2241 161.949 7.39709 155.848 4.22109 149.597C1.86509 144.959 1.42709 142.539 0.63909 129.813C0.14509 121.838 -0.118908 103.163 0.0520918 88.3125C0.403092 57.9165 0.88209 55.5075 8.61709 45.3125C15.4811 36.2645 20.9111 33.4545 48.4781 24.6785C74.6231 16.3565 122.932 1.31351 126.338 0.434514C131.043 -0.780486 142.887 0.688511 148.275 3.15451ZM132.838 48.8715C132.838 80.7715 132.748 82.3665 130.717 86.5625C126.637 94.9915 116.425 98.8355 107.336 95.3645C101.957 93.3105 97.4521 88.2095 86.0281 71.2375C76.9951 57.8165 69.2401 49.8065 62.0891 46.5115C58.3171 44.7735 55.4841 44.3225 48.3381 44.3225C36.3911 44.3225 30.0311 46.5245 23.7051 52.8495C15.7071 60.8485 15.4641 62.5885 16.4791 104.769L17.3381 140.465L20.0221 144.518C22.5211 148.291 27.4771 151.496 33.5881 153.288L35.8381 153.948L35.8601 135.63C35.8841 115.782 36.7051 111.943 41.9561 107.13C47.6881 101.875 56.9971 101.26 63.9591 105.675C69.0611 108.91 72.8541 115.422 81.8031 136.313C88.5651 152.097 94.3651 161.206 102.498 168.813C113.542 179.145 130.104 185.548 138.938 182.901C144.057 181.367 150.4 175.052 151.767 170.128C153.299 164.614 153.236 34.2995 151.7 29.7115C149.258 22.4185 143.826 17.7605 135.918 16.1785L132.838 15.5625V48.8715Z" fill="white"/>
<path d="M236.535 159.811H204.012V49.5572L199 39.9432H236.638L255.457 78.8083L273.457 117.571L268.446 72.0581V39.9432H301.072V159.811H269.878L245.536 112.457L230.501 82.7971L236.535 122.071V159.811Z" fill="white"/>
<path d="M358.754 113.48C358.754 124.799 359.606 132.674 361.311 137.106C363.084 141.538 366.152 143.754 370.516 143.754C373.721 143.754 376.141 142.97 377.778 141.401C379.414 139.765 380.641 136.458 381.46 131.481C382.346 126.435 382.789 118.901 382.789 108.878V84.2289C382.789 74.4786 381.835 67.217 379.925 62.4441C378.016 57.6712 374.88 55.2847 370.516 55.2847C366.152 55.2847 363.084 57.6371 361.311 62.3418C359.606 66.9783 358.754 75.4673 358.754 87.8086V113.48ZM368.368 161.959C362.709 161.959 357.595 161.448 353.027 160.425C348.527 159.402 344.64 157.97 341.367 156.129C338.094 154.288 335.231 151.936 332.776 149.072C330.39 146.208 328.446 143.14 326.946 139.867C325.514 136.594 324.355 132.776 323.469 128.412C322.582 123.98 321.969 119.582 321.628 115.219C321.287 110.787 321.116 105.809 321.116 100.286C321.116 92.1042 321.526 84.979 322.344 78.9106C323.23 72.8422 324.832 67.1488 327.151 61.8304C329.469 56.4438 332.537 52.0801 336.356 48.739C340.242 45.398 345.22 42.7729 351.288 40.8637C357.425 38.9546 364.652 38 372.971 38C378.698 38 383.846 38.5455 388.414 39.6364C392.983 40.6592 396.903 42.0911 400.176 43.932C403.449 45.773 406.279 48.1595 408.665 51.0914C411.12 54.0233 413.063 57.1598 414.495 60.5008C415.995 63.7737 417.188 67.6261 418.074 72.0581C418.961 76.49 419.575 80.8879 419.915 85.2517C420.256 89.6155 420.427 94.5589 420.427 100.082C420.427 108.264 419.984 115.389 419.097 121.458C418.211 127.526 416.609 133.219 414.29 138.538C411.972 143.788 408.87 148.084 404.983 151.425C401.097 154.697 396.085 157.288 389.948 159.198C383.88 161.039 376.687 161.959 368.368 161.959Z" fill="white"/>
<path d="M460.509 159.811L426.655 39.9432H464.395L473.293 81.2629L482.498 124.628L491.192 81.2629L500.397 39.9432H527.295L497.635 159.811H460.509Z" fill="white"/>
<path d="M595.467 159.811L590.864 140.686H561.818L557.931 159.811H527.862L559.056 48.2276L556.602 39.9432H598.842L633.002 159.811H595.467ZM575.011 75.1263L566.011 119.821H585.853L575.011 75.1263Z" fill="white"/>
</svg>
