<svg xmlns="http://www.w3.org/2000/svg" viewBox="0 0 150.78 42.02"><defs><style>.cls-1,.cls-3{fill:#1a68bb;}.cls-1{stroke:#1a68bb;stroke-miterlimit:100.85;stroke-width:1.56px;}.cls-2{fill:#fff;}.cls-4{fill:#ed1248;}</style></defs><g id="Layer_2" data-name="Layer 2"><g id="svg1"><path id="path9486" class="cls-1" d="M51.59,29.63c0,7.81-3.4,11.61-10.38,11.61H28.11V1.48h12.8c3.59,0,6,.72,7.51,2.26s2.15,3.69,2.15,6.86c0,4.63-.81,7.78-4.83,9.14l-.3.1v.81l.37.06c4,.71,5.78,3.46,5.78,8.92Zm-8.9-5.46a3.27,3.27,0,0,0-2.41-.89H36.84V35.22h3.23a3.81,3.81,0,0,0,2.84-.88c.91-.91,1.07-2.44,1.07-5.12C44,27.27,43.83,25.31,42.69,24.17ZM42.5,8.31a3.07,3.07,0,0,0-2.27-.81H36.84V17.57h3a3.45,3.45,0,0,0,2.59-.91c1-1,1.12-2.75,1.12-4.28C43.58,10.31,43.25,9.06,42.5,8.31Z"/><path id="path9487" class="cls-1" d="M79.29,41.24H70.43l-.86-8.92H62.19l-1,8.92H52.82L60.18,1.48H71.83ZM66.39,6.72h-.77L63.05,26.85h5.7Z"/><path id="path9488" class="cls-2" d="M95.16,41.54a3.44,3.44,0,0,0,3.45-3.45V3.45A3.45,3.45,0,0,0,95.16,0H84.94a3.45,3.45,0,0,0-3.45,3.45V38.09a3.45,3.45,0,0,0,3.45,3.45H95.16"/><path id="path9489" class="cls-3" d="M94.51,36.52c-.36-1.51-1.56-2.43-.94-2.93a11.45,11.45,0,0,0-.45-1.12,19,19,0,0,1-3.74-3.08c-.32-.35-.89-.72-1-1a29.14,29.14,0,0,1-3.17-4.69l-.89-.13c-.41-1.66-1.77-3.06-1.81-4.73a9.53,9.53,0,0,1,.4-2.25,3.08,3.08,0,0,1,.63-.72v-.45c-2,.06-1.39-.14-1.73-.9-.23-.53-.06-.64,0-1A21.14,21.14,0,0,1,83.34,10c.1-.38.48-1.3.48-1.3,1.46-3,2-2.75,3.73-2.91l.08-.13c1.74-.08,1.46-.21,1.69-1.87-.25.1-.32-.52-.32-.52-.14-1,.26-.78.45-.8,0-1.56.2-2,1.33-2.48H84.94a3.45,3.45,0,0,0-3.45,3.45V38.09a3.46,3.46,0,0,0,3.45,3.46H95.16c-1.17-.64-.48-1.84-.44-4.12-.55-.5-.18-.71-.21-.91"/><path id="path9490" class="cls-4" d="M92.64,7.08c.31.19.47.34.79.54.82.53,1.85,1.46,1.72,4.67.24.7.34,2.08.56,2.52a7.31,7.31,0,0,1,.85,2.24s.12,1.26.28,1.35c.87.2.62.28.74.44s.63.17.63.62a3,3,0,0,1,.41.73V3.45A3.45,3.45,0,0,0,95.16,0h-3.3a1.62,1.62,0,0,1,1,.76c.42,0,.93,1,.14,2.41.34.23.07.58-.17,1-.08.12-.16.36-.39.34-.31.63-.67,1.24-.94,1.28a.45.45,0,0,0,0,.5,4.16,4.16,0,0,1,1.13.66l0,.14"/><path id="path9491" class="cls-4" d="M95.68,41.5c1.51-.91.57-2.66.28-3.68a.3.3,0,0,1,.06-.18c.07-.14-.09-.47-.09-.47-.18-.16-.23-1-.33-1.41a8,8,0,0,1,.29-2.14,3.1,3.1,0,0,0-.81-1.56c-.12-.15-.51-3.39-.85-4.22-.47-1.13-.61-.95-1.17-2.3-.43-.95-.08-2.35-1.06-5.62,0,0,.22-.19.22-.19s-.77-2.83-1-3.6-.71-.83-.71-.83a3.76,3.76,0,0,1,0-.4c0-.12.93-2.48,1-2.55s1.3-.95,1.33-.82c.11.59.61,3.52.82,4s1,1.91,1.33,2.79a3.09,3.09,0,1,0,3.6,4.14V38.09a3.42,3.42,0,0,1-2.9,3.41h0"/><path id="path9495" class="cls-1" d="M16.78,1.48v24h-.69l-6.93-24H.78V41.24H8V16.1h.7l7,25.14H24V1.48Z"/><path id="path9496" class="cls-3" d="M101.55,6.79v-6h22.61V6.88h-6.44V41.23h-9.54V6.79h-6.63"/><path id="path9497" class="cls-3" d="M125.45.74h10.13L138.21,32,142.1.74h8.68l-6.71,40.49H131.69L125.45.74"/></g></g></svg>