<?xml version="1.0" encoding="utf-8"?>
<!-- Generator: Adobe Illustrator 24.3.0, SVG Export Plug-In . SVG Version: 6.00 Build 0)  -->
<svg version="1.1"
	 id="svg3349" inkscape:version="0.91 r13725" sodipodi:docname="beIn.svg" xmlns:cc="http://creativecommons.org/ns#" xmlns:dc="http://purl.org/dc/elements/1.1/" xmlns:inkscape="http://www.inkscape.org/namespaces/inkscape" xmlns:rdf="http://www.w3.org/1999/02/22-rdf-syntax-ns#" xmlns:sodipodi="http://sodipodi.sourceforge.net/DTD/sodipodi-0.dtd" xmlns:svg="http://www.w3.org/2000/svg"
	 xmlns="http://www.w3.org/2000/svg" xmlns:xlink="http://www.w3.org/1999/xlink" x="0px" y="0px" viewBox="0 0 992.1 566.9"
	 style="enable-background:new 0 0 992.1 566.9;" xml:space="preserve">
<style type="text/css">
	.st0{fill:#FFFFFF;}
</style>
<sodipodi:namedview  bordercolor="#666666" borderopacity="1.0" id="base" inkscape:current-layer="layer1" inkscape:cx="375" inkscape:cy="520" inkscape:document-units="px" inkscape:pageopacity="0.0" inkscape:pageshadow="2" inkscape:window-height="1017" inkscape:window-maximized="1" inkscape:window-width="1920" inkscape:window-x="-8" inkscape:window-y="-8" inkscape:zoom="0.35" pagecolor="#ffffff" showgrid="false">
	</sodipodi:namedview>
<g id="layer1" transform="translate(0,-343.70078)" inkscape:groupmode="layer" inkscape:label="Calque 1">
	<path id="path3347" inkscape:connector-curvature="0" class="st0" d="M391.7,849.8c-12.3-1.4-22.8-7.3-28.9-16.2
		c-4.4-6.3-5.6-10.3-5.6-18.3c0-6.6,1.7-9.4,5.8-9.4c3.8,0,6.2,3.4,6.2,9c0,12.7,10.7,21.9,26.6,22.7c10.5,0.6,18-1.5,23.5-6.5
		c6.1-5.5,8.2-10.3,7.7-17.9c-0.4-5.6-0.8-6.7-3.8-9.8c-4.5-4.7-12-7.3-24.3-8.5c-19.5-2-29.7-5.6-36-13c-9.6-11.2-7-32.3,5.5-43.5
		c15.3-13.7,44.4-12.9,59,1.7c5.3,5.3,8.3,11.5,9.8,20.3c1.1,6.2,1,6.9-0.8,9.4c-4.4,5.9-11.3,2.2-11.3-6c0-7.8-5.3-15.8-13.5-20.2
		c-3.4-1.8-5.6-2.2-14.5-2.2c-11.8,0-15.7,1.4-21.7,7.7c-6,6.2-8.1,16.4-4.8,22.8c2.9,5.6,12.6,9.4,27,10.6
		c21.1,1.7,33.4,7.6,38.9,18.7c3.4,6.8,3.6,18,0.5,26.1C431.3,843,412.7,852.2,391.7,849.8L391.7,849.8z M452.8,848.7
		c-1.3-1.9-1.6-7.6-1.6-42.3c0-24.6,0.4-42.4,1.1-46c2.4-12.9,11.2-24.1,22.7-28.7c4.8-1.9,7.6-2.3,17.3-2.3c11.4,0,11.7,0,19.2,3.7
		c31,15.3,31,59.1,0,74.5l-7.6,3.8l-20.1,0.5l-20.1,0.5l-0.3,17.4c-0.2,14.5-0.6,17.8-1.9,19.2C459.3,851.7,454.7,851.5,452.8,848.7
		L452.8,848.7z M503.6,797.9c6.8-2.6,13.1-8.5,16.3-15.5c6.9-15.1-0.8-33.6-16.5-39.5c-10.6-4-26.1-1.1-32.9,6.2
		c-1.2,1.3-3.2,4.6-4.5,7.3c-2.1,4.5-2.3,6.8-2.6,24.2L463,800h17.6C495.8,800,498.9,799.7,503.6,797.9L503.6,797.9z M584.2,849.4
		c-21.6-5.7-39-23.2-44.5-44.9c-0.8-3.3-1.5-9.8-1.5-14.5c0-16.9,5.9-31,17.9-43.1c12-12,26.2-17.9,43.1-17.9
		c16.9,0,31,5.9,43.1,17.9s17.9,26.2,17.9,43.1c0,16.9-5.9,31-17.9,43.1c-8.3,8.3-17.5,13.6-28.6,16.4
		C606.3,851.3,591.5,851.3,584.2,849.4L584.2,849.4z M611.1,837.5c21.8-5.8,37.1-25.4,37.1-47.5c0-13-5.1-25.1-14.5-34.5
		c-19.4-19.4-49.6-19.4-69,0c-15.5,15.4-18.8,37.3-8.8,57.4c5.6,11.2,19.5,22.1,31.9,25C593.8,839.3,605.2,839.1,611.1,837.5
		L611.1,837.5z M669.8,848.7c-1.3-1.9-1.6-7.5-1.5-41.2c0-22.5,0.5-41.8,1.1-45.5c1.4-8.6,6-17.9,11.1-22.5
		c7.1-6.4,15.6-9.7,26.3-10.3c14.7-0.8,24.9,3.1,33.9,12.7c12.4,13.2,14.9,31.1,6.7,47.8c-3.5,7.1-11.4,14.9-18.4,18.2
		c-2.5,1.2-4.6,2.4-4.6,2.6s4.5,7.9,10,16.9c5.5,9,10,17,10,17.8c0,2.8-3.1,5.9-5.9,5.9c-4,0-5.1-1.2-12.7-14
		c-3.8-6.3-8.8-14.5-11.2-18.3l-4.3-6.8l-14.7,0.3l-14.7,0.3l-0.3,18c-0.2,15.5-0.5,18.2-1.9,19.2
		C675.8,851.7,671.5,851.2,669.8,848.7z M723,797.2c11-5.9,16.7-15,16.7-26.7c0-11.8-5.7-20.9-16.7-26.7c-3.5-1.9-5.8-2.3-13.2-2.3
		c-7.8,0-9.7,0.4-14.7,2.8c-6.2,3-10.1,7.4-12.5,14c-1.6,4.5-3.3,37-2,40.3c0.6,1.5,2.6,1.6,19.4,1.3
		C717.2,799.5,719.1,799.3,723,797.2z M785.8,848.7c-1.4-1.9-1.6-8.6-1.6-52.4v-50.2l-15.5-0.3c-12.8-0.3-15.8-0.6-17.1-2
		c-2.4-2.4-2.1-6.9,0.6-9.1c2.1-1.7,4.6-1.8,39.2-1.6c35.2,0.3,37,0.4,38.3,2.2c1.8,2.5,1.8,5.6,0,8.1c-1.3,1.8-2.9,2-17.5,2.3
		l-16.1,0.3V797c0,44.9-0.2,51-1.6,52.4C792.3,851.7,787.6,851.4,785.8,848.7L785.8,848.7z M874.4,849.9
		c-12.7-1.6-25.7-10.1-30.9-20.3c-1.9-3.7-2.7-7.1-3-12.6c-0.4-7.1-0.3-7.7,1.9-9.2c5.5-3.9,9.9-0.8,9.9,6.9
		c0,13.4,12.4,23.5,28.9,23.5c17.7,0,29.6-9.4,29.6-23.5c0-5.9-2.2-10.1-7-13.4c-5.2-3.6-10.1-4.9-24.1-6.5
		c-15.4-1.8-21.6-3.5-28-7.8c-8.6-5.8-12-13.4-11.1-25c1.7-20.5,17.3-33.2,40.7-33c21.9,0.2,37.5,13.4,39.6,33.4
		c0.6,5.9,0.4,6.8-1.5,8.8c-4.7,4.7-9.6,1.7-10.5-6.5c-0.8-6.9-2.7-11-6.9-15.4c-5.3-5.4-12-8-20.9-8c-17.5,0-28.1,9-28.2,23.9
		c0,6.2,0,6.4,4.1,10.1c5.2,4.6,8.8,5.7,24.6,7.6c7,0.8,15.6,2.4,19.1,3.5c19.8,6.1,27.5,23.8,18.9,43.3
		c-4.7,10.7-16.5,18.9-29.1,20.3c-2.5,0.3-5.7,0.6-7.1,0.8C881.9,850.5,877.9,850.3,874.4,849.9L874.4,849.9z M556.7,714.8
		c-4.9-1.7-9.2-5.5-11.4-10.1c-2.1-4.3-2.1-4.7-2.1-105.6c0-89.1,0.2-101.7,1.5-104.9c7.4-17.7,32.5-15.8,37.5,2.9
		c0.7,2.5,0.9,38.1,0.7,104.1c-0.3,111.7,0.3,103.1-7.2,109.6C570.4,715.5,563.2,717,556.7,714.8L556.7,714.8z M613.4,713.4
		c-3.9-1.9-5.9-3.8-7.9-7.2l-2.7-4.7l-0.3-75c-0.2-51.9,0-77.4,0.8-82.9c2.3-16.2,9.1-29.9,20.4-41.1c13-12.9,27.8-19.3,46.6-20.2
		c20.1-1,37.9,5.7,52.2,19.7c7,6.9,12,14.2,56.4,84c26.8,42.1,50.3,78.2,52.3,80.3c2,2.1,5.9,5,8.6,6.5c4.3,2.3,6.2,2.7,13.5,2.7
		c6.9,0,9.4-0.4,13.2-2.3c5.9-2.9,12-8.8,15-14.4l2.3-4.3l0.5-79.1l0.5-79.1l3-4.8c8.9-14.3,30.9-11.7,35.5,4.3
		c0.8,2.6,1,28.2,0.8,83.2l-0.3,79.5l-2.7,8c-9,26.4-30.4,44.3-57.9,48.6c-22.3,3.5-49.4-6.6-63.3-23.6
		c-2.1-2.5-25.8-39.1-52.7-81.3c-26.9-42.2-50.2-77.9-51.6-79.5s-5.5-4.2-8.9-5.9c-5.8-2.9-6.8-3-14.5-2.6
		c-10.2,0.6-14.6,2.6-21.4,10.1c-8.7,9.6-8.3,5.3-8.3,90.9c0,56.3-0.3,76-1.2,79.1c-2.3,7.7-10.8,13.6-19.4,13.6
		C619.9,716,616.3,714.8,613.4,713.4L613.4,713.4z M152.7,712.9c-29.1-4.2-57.5-21.2-75.6-45.2c-7.6-10.1-16-27.4-19.6-40.2l-2.8-10
		l-0.3-102.4l-0.3-102.4l2.2-2.3c2.7-2.9,7.7-3.1,11-0.4l2.4,1.9l0.5,62.8l0.5,62.8l5-7c31.3-43.9,90.5-60.2,140.5-38.6
		c17.7,7.6,37.3,23.5,48.2,39.1c12.6,17.9,20.1,40,21.1,62c3,65.8-50.6,121.6-116.2,120.9C163.5,713.8,156,713.3,152.7,712.9z
		 M195.7,694c10.6-2.9,20.8-7.8,30.2-14.2c52-35.9,58-109.7,12.5-153c-9.1-8.7-16.3-13.6-27.7-18.9c-14.5-6.8-21.6-8.2-40.5-8.3
		c-14.1,0-17.7,0.3-25,2.3C92,516.2,60.3,569.6,73.7,622.5c7.8,30.9,32,57.8,61.4,68.5c14.3,5.2,19,5.9,36.6,5.6
		C184.5,696.3,189.3,695.8,195.7,694z M395.7,712.9c-22.2-3.2-45.1-14.3-61.9-30c-15.5-14.5-27.9-35.2-33.2-55.5
		c-3.4-13.1-4.4-35.5-2-48.9c4.8-27.8,19.6-53,41.2-70.4c45.2-36.3,109.5-34,152.1,5.4c20.2,18.7,33.5,46.1,36.2,74.3
		c1,11.1,0.3,15.5-2.9,17.2c-1.1,0.6-26.4,1-66.9,1h-65.1l-2.6-2.6c-2.1-2.1-2.5-3.2-2-6.2c1.2-7.6-2.2-7.2,63.9-7.2h59l-0.7-6.8
		c-0.9-8.3-5.5-22.6-10.2-31.2c-13.6-24.9-36.2-42.8-63.3-50.2c-7.2-2-10.9-2.3-24.5-2.3c-13.6,0-17.3,0.4-24.5,2.3
		c-35.2,9.5-62.5,36.9-71.7,72c-3.5,13.3-3.7,33.5-0.5,46.4c9.1,36.6,36.4,64.5,72.7,74.3c5.6,1.5,10.5,1.9,24.5,1.9
		c15.3,0,18.5-0.3,25.4-2.3c22.3-6.5,42-20.2,55.1-38.7c2.6-3.6,5.5-7,6.5-7.6c5.2-2.8,12,1.2,12,7.1c0,6.9-19,28.8-33.5,38.6
		C454.9,709.8,424.1,716.9,395.7,712.9L395.7,712.9z"/>
</g>
</svg>
