<?xml version="1.0" encoding="UTF-8" standalone="no"?>
<svg
   xmlns:dc="http://purl.org/dc/elements/1.1/"
   xmlns:cc="http://creativecommons.org/ns#"
   xmlns:rdf="http://www.w3.org/1999/02/22-rdf-syntax-ns#"
   xmlns:svg="http://www.w3.org/2000/svg"
   xmlns="http://www.w3.org/2000/svg"
   xmlns:sodipodi="http://sodipodi.sourceforge.net/DTD/sodipodi-0.dtd"
   xmlns:inkscape="http://www.inkscape.org/namespaces/inkscape"
   height="598.47882"
   width="1000"
   version="1.1"
   viewBox="0 0 800.01207 478.78306"
   id="svg2"
   inkscape:version="1.0.2 (e86c870879, 2021-01-15)"
   sodipodi:docname="Cartoon_Network_2010.svg">
  <metadata
     id="metadata48">
    <rdf:RDF>
      <cc:Work
         rdf:about="">
        <dc:format>image/svg+xml</dc:format>
        <dc:type
           rdf:resource="http://purl.org/dc/dcmitype/StillImage" />
        <dc:title />
      </cc:Work>
    </rdf:RDF>
  </metadata>
  <defs
     id="defs46" />
  <sodipodi:namedview
     pagecolor="#ffffff"
     bordercolor="#666666"
     borderopacity="1"
     objecttolerance="10"
     gridtolerance="10"
     guidetolerance="10"
     inkscape:pageopacity="0"
     inkscape:pageshadow="2"
     inkscape:window-width="1366"
     inkscape:window-height="705"
     id="namedview44"
     showgrid="false"
     inkscape:zoom="0.23969534"
     inkscape:cx="266.10129"
     inkscape:cy="770.27069"
     inkscape:window-x="-8"
     inkscape:window-y="-8"
     inkscape:window-maximized="1"
     inkscape:current-layer="svg2"
     inkscape:document-rotation="0" />
  <g
     id="g865">
    <path
       style="fill:#ffffff;stroke-width:0.62751"
       inkscape:connector-curvature="0"
       id="path6"
       d="M 399.99976,-0.00556429 H 800.01207 L 800.00607,399.89379 H 399.99976 Z" />
    <path
       inkscape:connector-curvature="0"
       id="path8"
       d="M 0,-0.00575603 H 399.99976 V 399.8936 H 0 Z"
       style="stroke-width:0.62751" />
    <path
       style="fill:#ffffff;stroke-width:0.62751"
       inkscape:connector-curvature="0"
       id="path10"
       d="m 366.39035,111.59683 -99.34733,56.83355 c -14.55697,-23.36595 -35.28173,-32.30733 -54.59209,-32.46923 -35.16627,-0.29463 -65.49318,27.93673 -65.47436,63.94951 -0.0174,37.04566 30.40598,63.91813 63.68596,64.48289 19.89331,0.33516 44.09824,-10.74547 56.39555,-32.71521 l 99.34105,56.98038 c -36.11318,62.24896 -98.02328,90.35512 -155.8734,90.25472 C 118.79637,378.76284 32.501241,305.42578 32.513791,200.06691 32.510654,95.26025 119.15405,20.649352 210.87086,21.239211 c 59.48164,0.387173 120.12418,28.370967 155.522,90.355109 z" />
    <path
       inkscape:connector-curvature="0"
       id="path12"
       d="M 428.73343,28.65261 H 542.96529 L 657.31638,171.60558 V 28.65261 h 114.13773 l 0.006,342.73322 h -114.144 L 542.96529,228.67131 V 371.38583 H 428.70206 Z"
       style="stroke-width:0.62751" />
    <path
       inkscape:connector-curvature="0"
       id="path14"
       d="m 45.747342,428.89709 c 6.283255,1.76663 11.566258,6.16441 14.980538,11.67106 l -13.152602,7.52321 c -2.292858,-3.19497 -6.068834,-5.48782 -10.121731,-4.88014 -4.003072,0.38841 -7.511291,3.43373 -8.563624,7.30546 -1.622552,6.87249 3.295179,12.57906 9.309106,12.87399 3.364079,0.10023 6.952179,-1.38447 9.376249,-4.96787 l 13.152602,7.59287 c -4.341362,7.17934 -12.02936,12.04693 -20.411634,12.75476 -15.542787,0.47859 -28.943255,-11.42507 -26.80031,-29.55006 2.887611,-15.71535 17.509402,-24.40636 32.231406,-20.32252 z"
       style="fill:#000000;stroke-width:0.62751" />
    <path
       style="color:#000000;font-style:normal;font-variant:normal;font-weight:normal;font-stretch:normal;font-size:medium;line-height:normal;font-family:sans-serif;text-indent:0;text-align:start;text-decoration:none;text-decoration-line:none;text-decoration-style:solid;text-decoration-color:#000000;letter-spacing:normal;word-spacing:normal;text-transform:none;writing-mode:lr-tb;direction:ltr;baseline-shift:baseline;text-anchor:start;white-space:normal;clip-rule:nonzero;display:inline;overflow:visible;visibility:visible;opacity:1;isolation:auto;mix-blend-mode:normal;color-interpolation:sRGB;color-interpolation-filters:linearRGB;solid-color:#000000;solid-opacity:1;fill:#000000;fill-opacity:1;fill-rule:nonzero;stroke:none;stroke-width:16.2801;stroke-linecap:round;stroke-linejoin:miter;stroke-miterlimit:4;stroke-dasharray:none;stroke-dashoffset:0;stroke-opacity:1;color-rendering:auto;image-rendering:auto;shape-rendering:auto;text-rendering:auto;enable-background:accumulate"
       d="m 251.01123,427.95705 c -4.90465,-0.3454 -9.94915,0.71054 -14.48298,3.33978 -12.08993,7.01104 -16.27118,22.73287 -9.26067,34.82311 7.01042,12.09058 22.73362,16.27332 34.82434,9.26312 11.56678,-6.70574 15.77892,-21.3545 9.99603,-33.20041 a 8.1408692,8.1408692 0 0 0 -0.72801,-1.6129 c -0.002,-0.004 -0.003,-0.007 -0.005,-0.011 a 8.1408692,8.1408692 0 0 0 -0.003,-0.003 8.1408692,8.1408692 0 0 0 -1.06627,-1.47195 c -4.5056,-6.61103 -11.67948,-10.59237 -19.27509,-11.12727 z m -1.05403,16.15838 c 2.93258,0.18779 5.68975,1.80766 7.31319,4.60705 a 8.1408692,8.1408692 0 0 0 10e-4,10e-4 8.1408692,8.1408692 0 0 0 10e-4,0.003 c 2.59502,4.47897 1.1315,9.97581 -3.34712,12.57226 -4.47924,2.59705 -9.97757,1.1345 -12.57471,-3.34468 -2.59717,-4.47905 -1.13426,-9.97611 3.34468,-12.57348 v -0.001 c 1.67963,-0.97405 3.50197,-1.37628 5.26152,-1.2636 z"
       id="path16"
       inkscape:connector-curvature="0" />
    <path
       style="color:#000000;font-style:normal;font-variant:normal;font-weight:normal;font-stretch:normal;font-size:medium;line-height:normal;font-family:sans-serif;text-indent:0;text-align:start;text-decoration:none;text-decoration-line:none;text-decoration-style:solid;text-decoration-color:#000000;letter-spacing:normal;word-spacing:normal;text-transform:none;writing-mode:lr-tb;direction:ltr;baseline-shift:baseline;text-anchor:start;white-space:normal;clip-rule:nonzero;display:inline;overflow:visible;visibility:visible;opacity:1;isolation:auto;mix-blend-mode:normal;color-interpolation:sRGB;color-interpolation-filters:linearRGB;solid-color:#000000;solid-opacity:1;fill:#000000;fill-opacity:1;fill-rule:nonzero;stroke:none;stroke-width:16.2801;stroke-linecap:round;stroke-linejoin:miter;stroke-miterlimit:4;stroke-dasharray:none;stroke-dashoffset:0;stroke-opacity:1;color-rendering:auto;image-rendering:auto;shape-rendering:auto;text-rendering:auto;enable-background:accumulate"
       d="m 659.63891,427.95705 c -4.90467,-0.3454 -9.94916,0.71054 -14.48298,3.33978 -12.08992,7.01104 -16.2712,22.73287 -9.26066,34.82311 7.01041,12.09058 22.73361,16.27332 34.82434,9.26312 11.56839,-6.70667 15.7813,-21.35854 9.99478,-33.20532 a 8.1408692,8.1408692 0 0 0 -0.72553,-1.60799 c 0,-0.004 0,-0.007 -0.006,-0.011 a 8.1408692,8.1408692 0 0 0 0,-0.003 8.1408692,8.1408692 0 0 0 -1.06746,-1.47318 c -4.50564,-6.6103 -11.67996,-10.59117 -19.27509,-11.12604 z m -1.05402,16.15838 c 2.93254,0.18779 5.68975,1.80766 7.31318,4.60705 a 8.1408692,8.1408692 0 0 0 0,10e-4 8.1408692,8.1408692 0 0 0 0,0.003 c 2.59501,4.47897 1.13272,9.97581 -3.34588,12.57226 v 0 c -4.47923,2.59705 -9.97634,1.1345 -12.57347,-3.34468 -2.5972,-4.47905 -1.13548,-9.97611 3.34343,-12.57348 v -0.001 c 1.67966,-0.97405 3.50201,-1.37628 5.26154,-1.2636 z"
       id="path18"
       inkscape:connector-curvature="0" />
    <path
       inkscape:connector-curvature="0"
       id="path22"
       d="M 101.42439,428.91592 H 77.031836 l -15.276095,48.83531 h 17.168665 l 2.509411,-8.19026 h 15.640678 l 2.462348,8.19026 h 17.163647 z m -12.192511,13.47263 4.362447,15.15436 h -8.734934 z"
       style="fill:#000000;stroke-width:0.62751" />
    <path
       inkscape:connector-curvature="0"
       id="path24"
       d="m 121.62393,428.91592 v 48.83531 h 16.17469 v -14.2771 h 5.27109 l 7.24899,14.2771 h 17.99195 l -9.4277,-16.01844 c 7.26091,-4.65524 9.74711,-10.42356 9.47288,-16.22112 0.006,-8.75376 -7.87901,-16.35102 -16.50099,-16.59575 z m 26.93648,14.24258 c 2.08383,0.0274 3.60435,2.05466 3.69603,3.78859 0.0533,2.48024 -1.83459,4.34011 -3.71172,4.38473 l -10.7461,0.0157 v -8.18901 z"
       style="fill:#000000;stroke-width:0.62751" />
    <path
       inkscape:connector-curvature="0"
       id="path26"
       d="m 172.82244,443.17294 v -14.25828 h 48.93321 v 14.25828 h -15.31124 v 34.57703 h -18.30069 v -34.57703 z"
       style="fill:#000000;stroke-width:0.62751" />
    <path
       inkscape:connector-curvature="0"
       id="path28"
       d="m 334.90819,428.91592 h 16.1408 l 16.53488,20.30747 v -20.30747 h 16.1521 v 48.83531 h -16.1521 l -16.53488,-20.35139 v 20.35139 h -16.1408 z"
       style="fill:#000000;stroke-width:0.62751" />
    <path
       inkscape:connector-curvature="0"
       id="path30"
       d="m 416.7731,428.91592 h 16.13955 l 16.53488,20.30747 v -20.30747 h 16.15084 v 48.83531 h -16.15084 l -16.53488,-20.35139 v 20.35139 H 416.7731 Z"
       style="fill:#000000;stroke-width:0.62751" />
    <path
       inkscape:connector-curvature="0"
       id="path32"
       d="m 472.62146,428.91592 h 42.64555 l -2.4e-4,14.24698 h -26.49346 v 4.99999 h 22.30797 v 11.40813 h -22.30797 v 5.13905 h 26.49346 l -2.5e-4,13.04091 h -42.64555 z"
       style="fill:#000000;stroke-width:0.62751" />
    <path
       inkscape:connector-curvature="0"
       id="path34"
       d="m 520.6636,443.17294 v -14.25828 h 48.9332 v 14.25828 h -15.31124 v 34.57703 h -18.30069 v -34.57703 z"
       style="fill:#000000;stroke-width:0.62751" />
    <path
       inkscape:connector-curvature="0"
       id="path36"
       d="m 573.68189,428.91592 h 16.41565 c 0,0 4.10529,21.32466 4.12274,21.41188 l 8.08985,-19.66489 8.23795,19.62097 4.12274,-21.36796 h 16.26505 l -9.29969,48.83531 h -13.53539 l -5.79191,-13.18335 -5.86094,13.18335 h -13.30948 c 0,0 -9.28024,-47.7334 -9.45657,-48.83531 z"
       style="fill:#000000;stroke-width:0.62751" />
    <path
       inkscape:connector-curvature="0"
       id="path38"
       d="m 688.1271,428.91592 v 48.83531 h 16.17406 l 0.0314,-14.2771 h 5.2397 l 7.24774,14.2771 h 17.99384 l -9.42833,-16.01844 c 7.26091,-4.65524 9.74961,-10.42356 9.47539,-16.22112 0.006,-8.75376 -7.88152,-16.35102 -16.5035,-16.59575 z m 26.93585,14.24258 c 2.08377,0.0274 3.60279,2.05466 3.69447,3.78859 0.0533,2.48024 -1.83302,4.34011 -3.71016,4.38473 l -10.7461,0.0157 v -8.18901 z"
       style="fill:#000000;stroke-width:0.62751" />
    <path
       inkscape:connector-curvature="0"
       id="path40"
       d="m 740.0849,477.74872 v -48.83531 h 16.33408 v 15.82077 l 12.17996,-15.82077 h 20.82704 l -18.90059,23.28186 18.90059,25.55345 h -20.82704 l -12.17996,-18.17393 v 18.17393 z"
       style="fill:#000000;stroke-width:0.62751" />
    <path
       style="color:#000000;font-style:normal;font-variant:normal;font-weight:normal;font-stretch:normal;font-size:medium;line-height:normal;font-family:sans-serif;text-indent:0;text-align:start;text-decoration:none;text-decoration-line:none;text-decoration-style:solid;text-decoration-color:#000000;letter-spacing:normal;word-spacing:normal;text-transform:none;writing-mode:lr-tb;direction:ltr;baseline-shift:baseline;text-anchor:start;white-space:normal;clip-rule:nonzero;display:inline;overflow:visible;visibility:visible;opacity:1;isolation:auto;mix-blend-mode:normal;color-interpolation:sRGB;color-interpolation-filters:linearRGB;solid-color:#000000;solid-opacity:1;fill:#000000;fill-opacity:1;fill-rule:nonzero;stroke:none;stroke-width:16.2801;stroke-linecap:round;stroke-linejoin:miter;stroke-miterlimit:4;stroke-dasharray:none;stroke-dashoffset:0;stroke-opacity:1;color-rendering:auto;image-rendering:auto;shape-rendering:auto;text-rendering:auto;enable-background:accumulate"
       d="m 306.21369,427.95705 c -4.90464,-0.3454 -9.94915,0.71054 -14.48297,3.33978 -12.08993,7.01104 -16.27119,22.73287 -9.26067,34.82311 7.01042,12.09058 22.73239,16.27332 34.82311,9.26312 11.56678,-6.70574 15.78015,-21.3545 9.99725,-33.20041 a 8.1408692,8.1408692 0 0 0 -0.728,-1.6129 c -0.002,-0.004 -0.003,-0.007 -0.005,-0.011 a 8.1408692,8.1408692 0 0 0 -0.003,-0.003 8.1408692,8.1408692 0 0 0 -1.0675,-1.47318 c -4.50566,-6.6103 -11.67872,-10.59117 -19.27387,-11.12604 z m -1.05402,16.15838 c 2.93257,0.18779 5.68852,1.80766 7.31196,4.60705 a 8.1408692,8.1408692 0 0 0 10e-4,10e-4 8.1408692,8.1408692 0 0 0 0.001,0.003 c 2.59502,4.47897 1.13272,9.97581 -3.3459,12.57226 -4.47923,2.59705 -9.97756,1.1345 -12.5747,-3.34468 -2.59718,-4.47905 -1.13549,-9.97611 3.34345,-12.57348 v -0.001 c 1.67964,-0.97405 3.5032,-1.37628 5.26274,-1.2636 z"
       id="path42"
       inkscape:connector-curvature="0" />
  </g>
</svg>
