<svg id="svg8" xmlns="http://www.w3.org/2000/svg" viewBox="0 0 750.01 194.59"><defs><style>.cls-1{fill:#e60505;}.cls-2{fill:#fff;}</style></defs><g id="layer1"><g id="g4758"><g id="g4539"><circle id="circle4531" class="cls-1" cx="97.27" cy="97.31" r="34.64"/><g id="h"><path id="q" class="cls-1" d="M131.91,137.28a34.64,34.64,0,1,1-69.28,0Zm5.33,0h32.87a32.87,32.87,0,0,1-32.87,32.87Zm-10,40a34.64,34.64,0,0,1-60,0Z" transform="translate(0.01 0)"/><g id="use4534"><path id="q-2" data-name="q" class="cls-1" d="M57.3,132a34.64,34.64,0,1,1,0-69.28Zm0,5.33v32.87a32.86,32.86,0,0,1-32.87-32.87Zm-40-10a34.64,34.64,0,0,1,0-60Z" transform="translate(0.01 0)"/></g></g><g id="use4537"><g id="h-2" data-name="h"><path id="q-3" data-name="q" class="cls-1" d="M62.63,57.34a34.64,34.64,0,1,1,69.28,0Zm-5.33,0H24.43A32.86,32.86,0,0,1,57.3,24.47Zm10-40a34.64,34.64,0,0,1,60,0Z" transform="translate(0.01 0)"/><g id="use4534-2" data-name="use4534"><path id="q-4" data-name="q" class="cls-1" d="M137.24,62.67a34.64,34.64,0,1,1,0,69.28Zm0-5.33V24.47a32.87,32.87,0,0,1,32.87,32.87Zm40,10a34.64,34.64,0,0,1,0,60Z" transform="translate(0.01 0)"/></g></g></g></g><g id="g4589"><path id="path4561" class="cls-2" d="M323.21,192.15a96,96,0,0,1-37.95-7.44A94.31,94.31,0,0,1,255,164.54,94,94,0,0,1,235.1,134a97.78,97.78,0,0,1-7.17-37.42v-.53a95.81,95.81,0,0,1,7.17-37.15A94,94,0,0,1,255,28.4,89.69,89.69,0,0,1,285.52,7.7,97.9,97.9,0,0,1,324.8,0a121.25,121.25,0,0,1,23.62,2.12A98.62,98.62,0,0,1,368.06,8a84.52,84.52,0,0,1,16.19,9,109.7,109.7,0,0,1,13.8,11.67l-26,30a96.89,96.89,0,0,0-22.29-15.39,55.55,55.55,0,0,0-25.21-5.57,52.68,52.68,0,0,0-21.77,4.51,51.63,51.63,0,0,0-17,12.47,57.86,57.86,0,0,0-11.15,18.58,61.64,61.64,0,0,0-4,22.29v.53a63.83,63.83,0,0,0,4,22.56,60.62,60.62,0,0,0,10.88,18.58,55,55,0,0,0,17,12.74,53.26,53.26,0,0,0,22,4.51q15.91,0,26.8-5.84a103.16,103.16,0,0,0,22-15.92l26,26.27a134.41,134.41,0,0,1-14.87,13.8,91.79,91.79,0,0,1-17,10.62,85,85,0,0,1-19.9,6.37,114.48,114.48,0,0,1-24.42,2.39Z" transform="translate(0.01 0)"/><path id="path4563" class="cls-2" d="M499.28,153.13q13.53,0,21.23-4.77,7.69-5.06,7.7-15.4v-.53a17.18,17.18,0,0,0-7.17-14.6q-7.17-5.56-23.09-5.57H450.71v40.87ZM488.4,78.29q13.53,0,21.49-4.51,8-4.78,8-15.13v-.53q0-9.28-6.9-14.06Q504.06,39,491.05,39H450.71V78.29ZM410.9,3.18h86.26q32.1,0,48.56,16.46,12.75,12.74,12.74,31.58v.53a42.91,42.91,0,0,1-2.12,14.07A40.45,40.45,0,0,1,551,77a38.8,38.8,0,0,1-7.7,8.5,48.32,48.32,0,0,1-9.28,6.37q16.19,6.11,25.47,16.72,9.3,10.35,9.29,28.92V138q0,12.75-5,22.3a41.71,41.71,0,0,1-14.07,15.92,64.35,64.35,0,0,1-22,9.56,117.41,117.41,0,0,1-28.4,3.18H410.9Z" transform="translate(0.01 0)"/><path id="path4565" class="cls-2" d="M673.83,192.15a96.08,96.08,0,0,1-38-7.44,94.16,94.16,0,0,1-30.25-20.17A93.87,93.87,0,0,1,585.72,134a97.77,97.77,0,0,1-7.16-37.42v-.53a95.8,95.8,0,0,1,7.16-37.15A93.87,93.87,0,0,1,605.63,28.4,89.5,89.5,0,0,1,636.15,7.7,97.82,97.82,0,0,1,675.42,0,121.18,121.18,0,0,1,699,2.12,98.62,98.62,0,0,1,718.68,8a84.52,84.52,0,0,1,16.19,9,108.3,108.3,0,0,1,13.8,11.67l-26,30a96.89,96.89,0,0,0-22.29-15.39,55.53,55.53,0,0,0-25.21-5.57A52.6,52.6,0,0,0,653.4,42.2a51.57,51.57,0,0,0-17,12.47,57.86,57.86,0,0,0-11.15,18.58,61.64,61.64,0,0,0-4,22.29v.53a63.83,63.83,0,0,0,4,22.56,60.65,60.65,0,0,0,10.89,18.58,54.86,54.86,0,0,0,17,12.74,53.29,53.29,0,0,0,22,4.51q15.92,0,26.8-5.84a102.91,102.91,0,0,0,22-15.92L750,159a135.23,135.23,0,0,1-14.86,13.8,91.54,91.54,0,0,1-17,10.62,84.83,84.83,0,0,1-19.9,6.37,114.41,114.41,0,0,1-24.42,2.39Z" transform="translate(0.01 0)"/></g></g></g></svg>