<svg xmlns="http://www.w3.org/2000/svg" viewBox="0 0 170 80.87"><defs><style>.cls-1{fill:#ec1c2e;}</style></defs><g id="Layer_2" data-name="Layer 2"><g id="Layer_1-2" data-name="Layer 1"><path id="path1607" class="cls-1" d="M71.2,0C63.66-.11,57,6,57,14.81V54.53a2.63,2.63,0,0,1-2.62,2.7H41.93c-26.87,0-24.47-34.35-1.6-34.38,10.17,0,13.73,0,13.73,0V13.21H39.85c-8.91,0-15.65,3.41-20.18,8.46a27.76,27.76,0,0,0-6.86,18.48,27.26,27.26,0,0,0,6.79,18.2c4.59,5.06,11.57,8.53,21.21,8.53H64.25a2.54,2.54,0,0,0,2.51-2.49V15.85a5.19,5.19,0,0,1,3.42-5.25h0a5.08,5.08,0,0,1,5.66,2.13h0c3.3,5.4,11.53,18.64,19,30.57l9.84,15.79,3.13,5L109,66.06a1.7,1.7,0,0,0,1.82.89h0a1.29,1.29,0,0,0,.77-.71,3.46,3.46,0,0,0,.31-1.53V15.86a5.2,5.2,0,0,1,3.42-5.25A5.05,5.05,0,0,1,121,12.75h0c3.3,5.4,11.54,18.64,19,30.57l14.18,22.74h0A1.77,1.77,0,0,0,156,67a1.35,1.35,0,0,0,.79-.72,3.31,3.31,0,0,0,.32-1.53V.3H147.4V37.91s-6-10.2-16.28-27.82c-10-17.26-29-10.13-29,4.72v23.1S96.25,27.69,86,10.07C81.91,3.06,76.36.08,71.2,0ZM41.6.3c-55.86,0-55.33,79.57.75,79.61H64.27c9.43,0,15.48-5.59,15.48-15.9V43.86L96.86,72.21c8.2,13.56,28.06,10.89,28-6V43.87S137.16,64.24,142,72.23c8.2,13.55,28.06,10.88,28-6.06V.3h-9.71V64.71h0c0,3.05-1.7,4.75-3.32,5.26h0a4.89,4.89,0,0,1-5.48-2.13h0c-.28-.44-26.58-42.56-33.16-53.32a1.85,1.85,0,0,0-2-.87c-.74.24-1.21,1-1.21,2.23V64.7h0c0,3-1.67,4.75-3.29,5.27h0a4.85,4.85,0,0,1-5.41-2.15h0c-.06-.08-.48-.76-1.24-2l-3.14-5L92.13,45C84.69,33.08,76.48,19.86,73.2,14.49a1.87,1.87,0,0,0-2.06-.87h0c-.75.24-1.22,1-1.21,2.22h0V64.39A5.68,5.68,0,0,1,64.25,70H40.81c-10.66,0-18.47-3.87-23.59-9.55A30.39,30.39,0,0,1,9.65,40.15,30.93,30.93,0,0,1,17.3,19.51c5.07-5.66,12.64-9.45,22.54-9.47H54.06V.3Z"/></g></g></svg>