<?xml version="1.0" encoding="utf-8"?>
<!-- Generator: Adobe Illustrator 24.3.0, SVG Export Plug-In . SVG Version: 6.00 Build 0)  -->
<svg version="1.1"
	 id="svg36145" inkscape:version="0.91 r13725" sodipodi:docname="HBO.svg" xmlns:cc="http://creativecommons.org/ns#" xmlns:dc="http://purl.org/dc/elements/1.1/" xmlns:inkscape="http://www.inkscape.org/namespaces/inkscape" xmlns:rdf="http://www.w3.org/1999/02/22-rdf-syntax-ns#" xmlns:sodipodi="http://sodipodi.sourceforge.net/DTD/sodipodi-0.dtd" xmlns:svg="http://www.w3.org/2000/svg"
	 xmlns="http://www.w3.org/2000/svg" xmlns:xlink="http://www.w3.org/1999/xlink" x="0px" y="0px" viewBox="0 0 1000 412.1"
	 style="enable-background:new 0 0 1000 412.1;" xml:space="preserve">
<style type="text/css">
	.st0{fill-rule:evenodd;clip-rule:evenodd;fill:#FFFFFF;}
</style>
<sodipodi:namedview  bordercolor="#666666" borderopacity="1.0" id="base" inkscape:current-layer="layer1" inkscape:cx="832.13857" inkscape:cy="422.89544" inkscape:document-units="px" inkscape:pageopacity="0.0" inkscape:pageshadow="2" inkscape:window-height="705" inkscape:window-maximized="1" inkscape:window-width="1366" inkscape:window-x="-8" inkscape:window-y="-8" inkscape:zoom="0.25" pagecolor="#ffffff" showgrid="false" units="px">
	</sodipodi:namedview>
<g id="layer1" transform="translate(0,-640.25423)" inkscape:groupmode="layer" inkscape:label="Layer 1">
	<path id="path33941" inkscape:connector-curvature="0" class="st0" d="M796,926.1c43.6,0,80.5-36,80.5-80.9
		c0-44.9-36.9-80.5-80.5-80.5c-44.9,0-80.9,35.5-80.9,80.5C715.1,890.1,751,926.1,796,926.1 M693.5,845.2
		c0-56.6,45.9-102.5,102.5-102.5c56.7,0,102.5,45.8,102.5,102.5c0,57.1-45.8,102.9-102.5,102.9C739.3,948.1,693.5,902.2,693.5,845.2
		 M549.7,845.2c13-0.9,34.1-15.7,42.2-24.7c-3.2,10.8-3.2,44.9,0,55.7C582.9,863.2,562.7,847.4,549.7,845.2 M476,736.9
		c16.2,0,29.2,15.7,29.2,33.7c0,17.9-13,33.7-29.2,33.7h-55.8v-67.4L476,736.9L476,736.9z M476,888.3c16.2,0,29.2,15.8,29.2,33.7
		c0,18.9-13,34.6-29.2,34.6h-55.8v-68.3L476,888.3L476,888.3z M796,1052.4c112.4,0,204-93.5,204-207.2c0-115.5-91.7-204.9-204-204.9
		c-113.7,0-171.2,82.7-185.1,116.4c0-49.9-49.9-109.6-107.9-109.6H315.5v403.6h174.4c71,0,120.9-60.7,120.9-113.7
		C626.6,969.7,682.3,1052.4,796,1052.4 M293.1,1050.6H183.4V894.1h-71v156.4H0V647h112.4v150.5h71V647h109.7V1050.6z"/>
</g>
</svg>
