<svg id="Layer_1" data-name="Layer 1" xmlns="http://www.w3.org/2000/svg" xmlns:xlink="http://www.w3.org/1999/xlink" viewBox="0 0 414.44 240"><defs><style>.cls-1{fill:none;}.cls-2{clip-path:url(#clip-path);}.cls-3{fill:#fff;}.cls-4{fill:#004fff;}</style><clipPath id="clip-path" transform="translate(0 0)"><rect class="cls-1" width="414.44" height="240"/></clipPath></defs><g id="g1139"><g class="cls-2"><g id="g1121"><path id="path1117" class="cls-3" d="M82.25,30.4,70.72,23.86V0H123V23.86L112,30.39V213.3L82.25,203.07,43.43,80v76.67l12.88,13v24.55L0,174.79V154.15l13.07-5.08V30.2L0,23.86V0H43.43L82.25,112.68Zm96.27,171.8,11.15,10.89V240L134,220.84V200l12.3-5V30.21L134,24.05V0H230.6V48.49H209.27l-6.53-19.82h-24.6V85h18.45l7.3-10.58h14.8v49.45h-14.8l-6.92-10H178.14v88.3Zm61.5-3.31,13.83-11.36V30.21l-11.72-6.16V0h55.73V24.05l-10.95,6.16v145l23.72-8.15,4.91-38.91h22.67v60.76L240,222.69V198.9Z" transform="translate(0 0)"/><path id="path1119" class="cls-4" d="M377.19,37.24,371.09,0H358.88l-6.1,37.24-37.25,6.11v12.2l37.25,6.11,6.1,37.24h12.21l6.1-37.24,37.25-6.11V43.35Z" transform="translate(0 0)"/></g></g></g></svg>