<?xml version="1.0" encoding="UTF-8" standalone="no"?>
<!-- Created with Inkscape (http://www.inkscape.org/) -->

<svg
   width="124.35394mm"
   height="73.636108mm"
   viewBox="0 0 124.35394 73.636108"
   version="1.1"
   id="svg1"
   xml:space="preserve"
   inkscape:version="1.3.2 (091e20e, 2023-11-25, custom)"
   sodipodi:docname="Prime-2024.svg"
   xmlns:inkscape="http://www.inkscape.org/namespaces/inkscape"
   xmlns:sodipodi="http://sodipodi.sourceforge.net/DTD/sodipodi-0.dtd"
   xmlns="http://www.w3.org/2000/svg"
   xmlns:svg="http://www.w3.org/2000/svg"><sodipodi:namedview
     id="namedview1"
     pagecolor="#ffffff"
     bordercolor="#666666"
     borderopacity="1.0"
     inkscape:showpageshadow="2"
     inkscape:pageopacity="0.0"
     inkscape:pagecheckerboard="0"
     inkscape:deskcolor="#d1d1d1"
     inkscape:document-units="mm"
     showguides="true"
     inkscape:zoom="1.4004209"
     inkscape:cx="206.0095"
     inkscape:cy="44.986476"
     inkscape:window-width="1920"
     inkscape:window-height="1017"
     inkscape:window-x="-8"
     inkscape:window-y="-8"
     inkscape:window-maximized="1"
     inkscape:current-layer="layer1" /><defs
     id="defs1" /><g
     inkscape:label="Layer 1"
     inkscape:groupmode="layer"
     id="layer1"
     transform="translate(170.34596,187.1882)"><path
       d="m -154.09649,-137.56369 c -0.21429,0.0209 -0.40278,0.0942 -0.57003,0.21968 -0.45995,0.3345 -0.56172,0.92533 -0.29237,1.75583 0.23255,0.71703 0.8361,1.58907 1.71418,2.67622 3.51232,4.34857 7.69349,7.98634 12.58565,10.87145 4.85034,2.88512 10.07716,5.01792 15.63833,6.39775 5.60298,1.37985 9.65904,2.09067 17.1018,2.09067 7.44277,0 14.551192,-1.08746 21.283133,-3.26176 6.731939,-2.13247 12.376898,-5.18452 16.892734,-9.07316 1.588904,-1.42165 2.38303,-2.5088 2.38303,-3.34507 0,-0.29268 -0.125606,-0.62768 -0.376482,-0.92038 -0.37632,-0.33449 -0.794289,-0.45945 -1.296049,-0.33402 -0.501759,0.12548 -1.212586,0.41799 -2.090665,0.87793 -4.306769,2.25792 -9.575571,4.09769 -15.805751,5.43572 -6.188368,1.37985 -11.038057,2.04902 -19.40072,2.04902 -8.36266,0 -16.43278,-1.12962 -24.21006,-3.38754 -7.77727,-2.29971 -14.67647,-5.85385 -20.69758,-10.66238 -0.87808,-0.66901 -1.58874,-1.08698 -2.13232,-1.29606 -0.27178,-0.0836 -0.51254,-0.11489 -0.72683,-0.0939 z"
       id="path908"
       inkscape:connector-curvature="0"
       sodipodi:nodetypes="scssccsccscsccscccs"
       style="fill:#0578ff;fill-opacity:1;stroke-width:0.418133" /><path
       d="m -65.143602,-139.22561 c -2.968743,0 -5.854025,0.71066 -8.530075,2.13231 -0.961706,0.54358 -1.714671,1.04518 -2.216431,1.50512 -0.501759,0.50176 -0.65932,0.95698 -0.418132,1.46346 0.177054,0.37181 0.502085,0.58539 0.962032,0.62721 0.459945,0.0836 1.128469,0.0423 2.006548,-0.125 1.421652,-0.2927 2.88577,-0.50176 4.432861,-0.62721 1.547093,-0.0836 2.884955,-0.0422 4.013914,0.0833 1.128959,0.16725 1.839623,0.41813 2.132315,0.83627 0.418133,0.66901 0.292856,2.00671 -0.459784,4.05556 -0.710825,2.04886 -1.714344,4.05621 -2.92693,5.97963 -0.459947,0.79446 -0.752639,1.38001 -0.836266,1.83995 -0.125432,0.45995 -0.04796,0.86412 0.237002,1.15173 0.2081,0.21002 0.476558,0.31174 0.808331,0.31174 0.669012,0 1.672369,-0.58571 2.96858,-1.79831 2.341545,-2.04884 3.972589,-4.43172 4.934296,-7.23321 0.543572,-1.46346 0.835776,-2.9689 0.961216,-4.55781 0.125432,-1.54709 -0.02962,-2.75784 -0.543084,-3.38671 -1.659089,-2.03197 -5.091998,-2.23919 -7.526393,-2.25808 z"
       id="path898"
       inkscape:connector-curvature="0"
       sodipodi:nodetypes="sccsccccccccsscccsss"
       style="fill:#0578ff;fill-opacity:1;stroke-width:0.418133" /><path
       d="m -118.84955,-187.1882 c -1.15447,0 -2.18952,0.39825 -2.98571,1.15463 -0.79619,0.71657 -1.19429,1.79127 -1.19429,3.02536 0,1.2341 0.43775,2.26899 1.23395,3.02538 0.83599,0.75637 1.83122,1.15461 2.9857,1.15461 1.19428,0 2.14988,-0.39824 2.94605,-1.15461 0.83601,-0.75639 1.23395,-1.75146 1.23395,-3.02538 0,-1.2739 -0.43776,-2.26897 -1.23395,-3.02536 -0.79617,-0.75638 -1.83122,-1.15463 -2.9857,-1.15463 z m -2.66771,10.58917 c -0.27866,0 -0.47756,0.0794 -0.63679,0.23869 -0.15923,0.15925 -0.2387,0.35891 -0.2387,0.63759 v 26.3139 c 0,0.27866 0.0794,0.51721 0.2387,0.67645 0.15923,0.15924 0.35813,0.23871 0.63679,0.23871 h 5.41472 c 0.27867,0 0.47756,-0.0794 0.6368,-0.23871 0.15923,-0.15924 0.23869,-0.35812 0.23869,-0.6368 v -26.35355 c 0,-0.59715 -0.27835,-0.87628 -0.87549,-0.87628 z"
       id="path7"
       inkscape:connector-curvature="0"
       style="fill:#0578ff;fill-opacity:1;stroke-width:0.418133" /><path
       class="color-health-green"
       d="m -156.01455,-177.27579 c 1.91086,0 3.58287,0.59716 5.0558,1.83125 1.47295,1.23408 2.58763,2.94589 3.42362,5.17522 0.7962,2.22933 1.19429,4.81696 1.19429,7.72305 0,2.90609 -0.39809,5.4937 -1.19429,7.68322 -0.79619,2.22933 -1.95067,3.94114 -3.42362,5.17524 -1.47293,1.23409 -3.14494,1.87104 -5.0558,1.87104 -1.91085,0 -2.82647,-0.39809 -3.94114,-1.15447 -1.11467,-0.75639 -2.1099,-1.95067 -2.94591,-3.50324 h -0.27865 v 11.94116 c 0,0.27865 -0.0796,0.47772 -0.23886,0.63694 -0.15925,0.15923 -0.35829,0.23886 -0.63696,0.23886 h -5.4141 c -0.23885,0 -0.45648,-0.0677 -0.63673,-0.24789 -0.18023,-0.18024 -0.23906,-0.38906 -0.23906,-0.62791 v -35.18989 c 0,-0.23885 0.0796,-0.4379 0.27865,-0.59715 0.15924,-0.19905 0.35829,-0.27868 0.59714,-0.27868 h 4.45867 c 0.47771,0 0.79619,0.27868 0.95543,0.87583 l 0.67676,3.30419 h 0.27866 c 0.59715,-1.47296 1.55258,-2.62743 2.86628,-3.54304 1.27392,-0.87583 2.70706,-1.31373 4.21982,-1.31373 z m -2.508,6.01123 c -1.51276,0 -2.70705,0.75639 -3.54304,2.26914 -0.83601,1.51276 -1.2341,3.66248 -1.2341,6.44915 0,2.78665 0.39809,4.93636 1.2341,6.44913 0.83599,1.51276 2.03028,2.26913 3.54304,2.26913 1.51277,0 2.70705,-0.75637 3.50323,-2.26913 0.79619,-1.51277 1.2341,-3.66248 1.2341,-6.44913 0,-2.78667 -0.39809,-4.93639 -1.2341,-6.44915 -0.79618,-1.51275 -1.99046,-2.26914 -3.50323,-2.26914 z"
       id="path9"
       inkscape:connector-curvature="0"
       sodipodi:nodetypes="sscscsssccssssssscssccccsssssssscs"
       style="fill:#0578ff;fill-opacity:1;stroke-width:0.418133" /><path
       id="path11"
       style="fill:#0578ff;fill-opacity:1;stroke-width:0.418133"
       d="m -57.616635,-177.27548 c -2.388569,0 -4.498608,0.63658 -6.329847,1.91047 -1.831239,1.27391 -3.263907,3.06543 -4.338753,5.33456 -1.035048,2.26914 -1.552877,4.81749 -1.552877,7.68377 0,2.82647 0.477512,5.37383 1.512569,7.56336 1.035057,2.18951 2.508041,3.9015 4.33927,5.13561 1.831241,1.23408 3.702434,1.83141 6.329847,1.83141 2.627431,0 4.896479,-0.67686 6.807336,-1.99058 1.910857,-1.35351 3.304335,-3.26425 4.140316,-5.77225 0.199046,-0.59713 -2.53e-4,-0.95596 -0.59738,-1.07539 l -5.015714,-1.11414 c -0.517529,-0.11947 -0.875851,0.11916 -0.995288,0.67644 -0.597138,2.42838 -1.512794,3.62252 -4.33927,3.62252 -2.826469,0 -4.418715,-2.30932 -4.737179,-6.96702 h 15.446086 c 0.278653,0 0.517227,-0.0794 0.676444,-0.23874 0.199055,-0.15923 0.279053,-0.35798 0.279053,-0.63666 v -1.43298 c 0,-2.78665 -0.478047,-5.29477 -1.473295,-7.4843 -0.955419,-2.22934 -2.308579,-3.9413 -4.100008,-5.1754 -1.751602,-1.23409 -3.662744,-1.87068 -6.05131,-1.87068 z m -0.03979,5.65288 c 1.234102,0 2.22951,0.55708 2.946073,1.63194 0.756394,1.07485 1.233952,2.70738 1.432988,4.81728 h -9.036658 c 0.238855,-2.07008 0.796465,-3.66232 1.592667,-4.77697 0.835982,-1.11466 1.830837,-1.67225 3.06493,-1.67225 z" /><path
       class="color-health-green"
       d="m -109.4982,-148.53318 c -0.23885,0 -0.4546,-0.0581 -0.62513,-0.24758 -0.1883,-0.20922 -0.25067,-0.4292 -0.25067,-0.62825 v -26.31407 c 0,-0.27866 0.0796,-0.47771 0.23886,-0.63694 0.19904,-0.15923 0.39809,-0.23885 0.63694,-0.23885 h 4.45866 c 0.51753,0 0.83601,0.27865 0.95543,0.87579 l 0.67676,3.3042 h 0.27867 c 0.59715,-1.59239 1.47295,-2.78667 2.62743,-3.62266 1.15448,-0.83601 2.508011,-1.2341 4.060578,-1.2341 1.552577,0 3.065326,0.4379 4.25961,1.2739 1.194285,0.83601 2.109916,2.03028 2.746862,3.58286 h 0.278665 c 0.995249,-1.6322 2.149714,-2.82649 3.383818,-3.66247 1.273883,-0.7962 2.667214,-1.2341 4.219791,-1.2341 1.552568,0 3.105145,0.4379 4.339239,1.35351 1.234104,0.91563 2.189524,2.18953 2.786661,3.90134 0.636947,1.672 0.995239,3.62267 0.995239,5.89181 v 16.75978 c 0,0.23885 -0.07962,0.47771 -0.238865,0.63696 -0.159227,0.15924 -0.358282,0.23887 -0.636937,0.23887 h -5.414095 c -0.238865,0 -0.437911,-0.0796 -0.597138,-0.27868 -0.199046,-0.19904 -0.278674,-0.3981 -0.278674,-0.59715 v -16.20245 c 0,-1.672 -0.318473,-2.94591 -0.95543,-3.82171 -0.636946,-0.87582 -1.512758,-1.31371 -2.707043,-1.31371 -1.194284,0 -2.34876,0.51751 -3.025516,1.55256 -0.676766,1.03505 -0.995239,2.54781 -0.995239,4.53829 v 15.24702 c 0,0.23885 -0.07962,0.47771 -0.238865,0.63696 -0.159227,0.15924 -0.358272,0.23887 -0.636946,0.23887 h -5.414086 c -0.238865,0 -0.437911,-0.0796 -0.597148,-0.27868 -0.199035,-0.19904 -0.278664,-0.3981 -0.278664,-0.59715 v -16.20245 c 0,-1.672 -0.318473,-2.94591 -0.95543,-3.82171 -0.636946,-0.87582 -1.512758,-1.31371 -2.707043,-1.31371 -1.194304,0 -2.348774,0.51751 -3.025544,1.55256 -0.67676,1.03505 -0.99523,2.54781 -0.99523,4.53829 v 15.24702 c 0,0.23885 -0.0796,0.47771 -0.23886,0.63696 -0.15923,0.15924 -0.35828,0.23887 -0.63695,0.23887 z"
       id="path13"
       inkscape:connector-curvature="0"
       sodipodi:nodetypes="sssscsscccssscccsscssssscsssssssssscssssssssss"
       style="fill:#0578ff;fill-opacity:1;stroke-width:0.418133" /><path
       id="path14"
       style="fill:#0578ff;fill-opacity:1;stroke-width:0.418133"
       class="color-health-green"
       d="m -128.53789,-177.27548 c -1.55256,0 -2.90574,0.39802 -4.06022,1.23403 -1.15448,0.83599 -2.03061,2.03013 -2.62774,3.62252 h -0.27854 l -0.67696,-3.30419 c -0.11942,-0.59714 -0.43797,-0.87592 -0.9555,-0.87592 h -4.45864 c -0.23885,0 -0.43762,0.08 -0.63666,0.23926 -0.15926,0.15923 -0.23874,0.358 -0.23874,0.63666 v 26.31415 c 0,0.19905 0.0623,0.41917 0.25063,0.62839 0.17053,0.18948 0.38592,0.24753 0.62477,0.24753 h 5.49372 c 0.27867,0 0.47794,-0.0795 0.63717,-0.23875 0.15926,-0.15925 0.23875,-0.39832 0.23875,-0.63717 v -15.24713 c 0,-1.99048 0.31852,-3.42049 0.99528,-4.45554 0.67677,-1.03505 1.83136,-1.5167 3.02566,-1.5167 1.234,0 2.6962,0.4392 3.87625,1.07228 0.32367,0.17364 0.96781,0.26748 1.13791,-0.42943 l 1.38907,-5.69113 c 0.0454,-0.18512 0.14733,-0.6098 -0.47388,-0.89555 -0.99358,-0.45702 -2.11506,-0.70331 -3.26233,-0.70331 z"
       sodipodi:nodetypes="sscccsscsssssssssssscss" /></g></svg>
